<svg width="34" height="34" viewBox="0 0 34 34" fill="none" xmlns="http://www.w3.org/2000/svg">
<path d="M17 32C26.3888 32 34 25.0604 34 16.5C34 7.93959 26.3888 1 17 1C7.61116 1 0 7.93959 0 16.5C0 25.0604 7.61116 32 17 32Z" fill="white"/>
<path d="M12.3604 13.019C12.2035 13.019 12.0501 13.0614 11.9197 13.1409C11.7892 13.2204 11.6875 13.3333 11.6275 13.4655C11.5674 13.5977 11.5517 13.7431 11.5823 13.8834C11.6129 14.0237 11.6885 14.1526 11.7994 14.2538C11.9104 14.3549 12.0517 14.4238 12.2056 14.4517C12.3595 14.4796 12.519 14.4653 12.664 14.4106C12.809 14.3558 12.9329 14.2631 13.02 14.1442C13.1072 14.0252 13.1537 13.8854 13.1537 13.7423C13.1484 13.552 13.0631 13.3709 12.9154 13.2363C12.7678 13.1017 12.5691 13.0239 12.3604 13.019ZM21.4554 11.3656C20.4113 10.8338 19.2382 10.5476 18.0423 10.5329C16.8464 10.5183 15.6653 10.7756 14.6058 11.2817C14.4738 11.3463 14.3743 11.455 14.3281 11.585C14.2819 11.715 14.2926 11.8562 14.3579 11.9792C14.3931 12.0421 14.4416 12.098 14.5006 12.1437C14.5596 12.1894 14.6279 12.2241 14.7016 12.2457C14.7753 12.2673 14.853 12.2754 14.9301 12.2696C15.0073 12.2637 15.0824 12.2441 15.1512 12.2117C16.0099 11.7923 16.968 11.5706 17.9421 11.5658C18.971 11.5672 19.9826 11.8072 20.8817 12.2633C20.9711 12.3065 21.0709 12.3287 21.1721 12.3279C21.2767 12.3276 21.3794 12.3024 21.4701 12.2548C21.5607 12.2072 21.6362 12.139 21.6892 12.0567C21.7502 11.9354 21.7601 11.7979 21.717 11.6705C21.6739 11.543 21.5807 11.4345 21.4554 11.3656Z" fill="#00A2C7"/>
<path d="M17 0C13.6377 0 10.3509 0.997032 7.55531 2.86502C4.75968 4.733 2.58074 7.38804 1.29406 10.4944C0.00736593 13.6007 -0.329291 17.0189 0.326658 20.3165C0.982606 23.6142 2.6017 26.6433 4.97919 29.0208C7.35668 31.3983 10.3858 33.0174 13.6835 33.6733C16.9811 34.3293 20.3993 33.9926 23.5056 32.7059C26.612 31.4193 29.267 29.2403 31.135 26.4447C33.003 23.6491 34 20.3623 34 17C34 12.4913 32.2089 8.1673 29.0208 4.97918C25.8327 1.79107 21.5087 0 17 0Z" fill="#00A2C7"/>
<g clip-path="url(#clip0_955_2621)">
<path d="M7.65182 19.2053V15.8824C7.65182 15.0882 8.08465 14.6296 8.95983 14.5925C9.79263 14.556 10.6314 14.5571 11.4642 14.5925C12.2862 14.6285 12.7483 15.1029 12.7507 15.8568C12.7571 18.0986 12.7571 20.3402 12.7507 22.5816C12.7507 23.4275 12.2218 23.896 11.3006 23.8993C10.5747 23.9022 9.84854 23.9022 9.1222 23.8993C8.15448 23.8955 7.6554 23.4401 7.65182 22.5527C7.64824 21.4382 7.65122 20.322 7.65182 19.2053ZM8.94491 22.7123H11.4457V15.7626H8.94491V22.7123Z" fill="white"/>
<path d="M22.5742 13.9112C22.2429 13.6149 21.9103 13.3202 21.5808 13.0222C21.4419 12.9057 21.312 12.7804 21.1922 12.6474C20.9677 12.3805 21.0017 12.0629 21.2596 11.8407C21.5175 11.6184 21.8315 11.619 22.1121 11.8663C22.7557 12.4334 23.3831 13.0146 24.0171 13.5909C24.2069 13.7636 24.4004 13.933 24.5854 14.1106C24.9186 14.4303 24.9305 14.7566 24.592 15.0704C23.7833 15.8211 22.9674 16.5655 22.1443 17.3038C21.8721 17.5495 21.4644 17.5577 21.231 17.3452C20.9725 17.1104 20.9605 16.7596 21.2363 16.4911C21.6106 16.1272 22.0077 15.7829 22.3921 15.4294C22.4661 15.3618 22.5288 15.2839 22.6273 15.1777C22.4482 15.1657 22.3222 15.1527 22.1951 15.1489C20.3232 15.0955 18.4796 14.7176 16.7625 14.0354C14.7769 13.2521 13.0062 12.1741 11.5525 10.7055C10.8827 10.0284 10.2959 9.28207 9.68935 8.55431C9.46309 8.28194 9.55205 7.93658 9.84696 7.73721C10.1156 7.55744 10.4834 7.61083 10.7126 7.87938C11.2009 8.45081 11.6511 9.05219 12.1699 9.59911C13.8767 11.3967 16.0085 12.6251 18.4711 13.3703C19.7103 13.7401 20.9993 13.9529 22.302 14.0027C22.3785 14.0019 22.4549 13.9964 22.5306 13.9864L22.5742 13.9112Z" fill="white"/>
<path d="M19.1027 20.4135C19.1027 21.1663 19.1063 21.9191 19.1027 22.6719C19.0985 23.4008 18.5845 23.8878 17.7839 23.9003C16.969 23.9128 16.1536 23.9139 15.3363 23.9003C14.5363 23.8867 14.0229 23.4002 14.0193 22.6648C14.0133 21.1396 14.0133 19.6158 14.0193 18.0934C14.0193 17.4561 14.4778 16.9642 15.1799 16.9353C16.1016 16.8972 17.0305 16.8988 17.9499 16.9353C18.6376 16.962 19.0919 17.4452 19.0985 18.0738C19.1074 18.8533 19.0985 19.6339 19.0985 20.4162L19.1027 20.4135ZM15.2993 20.4309C15.2993 21.12 15.3046 21.8096 15.2962 22.5009C15.2962 22.6752 15.3476 22.7411 15.5494 22.7378C16.226 22.728 16.9026 22.728 17.5792 22.7378C17.7923 22.7411 17.855 22.667 17.8544 22.4834C17.8496 21.114 17.8496 19.7443 17.8544 18.3745C17.8544 18.167 17.7815 18.0798 17.5457 18.0831C16.8998 18.0918 16.2536 18.0918 15.6073 18.0831C15.381 18.0804 15.2909 18.1441 15.2957 18.3647C15.3076 19.0516 15.2993 19.7391 15.2993 20.4287V20.4309Z" fill="white"/>
<path d="M20.4017 21.5601C20.4017 21.1608 20.3939 20.761 20.4017 20.3617C20.4166 19.7696 20.9258 19.2804 21.573 19.2684C22.478 19.2513 23.383 19.2513 24.2881 19.2684C24.9358 19.2809 25.4588 19.7816 25.4791 20.4173C25.503 21.1881 25.5071 21.9605 25.4791 22.7313C25.4546 23.4138 24.9179 23.8818 24.1657 23.8965C23.3407 23.9125 22.515 23.9125 21.6888 23.8965C20.9127 23.8818 20.4142 23.4106 20.3981 22.7024C20.3891 22.3211 20.3981 21.9398 20.3981 21.5585L20.4017 21.5601ZM24.2021 21.5906C24.2021 21.2736 24.1949 20.9565 24.2051 20.6395C24.2111 20.4641 24.1454 20.3998 23.9484 20.402C23.2718 20.4107 22.5968 20.4107 21.9234 20.402C21.7103 20.3993 21.6506 20.4777 21.6536 20.6602C21.6611 21.267 21.6611 21.8739 21.6536 22.4807C21.6506 22.6648 21.7103 22.7367 21.9234 22.7335C22.608 22.7233 23.2929 22.7233 23.9782 22.7335C24.1705 22.7362 24.214 22.679 24.2063 22.5156C24.192 22.2067 24.2021 21.8984 24.2021 21.5906Z" fill="white"/>
</g>
<defs>
<clipPath id="clip0_955_2621">
<rect width="17.85" height="16.275" fill="white" transform="translate(7.65002 7.63403)"/>
</clipPath>
</defs>
</svg>
