<svg width="35" height="35" viewBox="0 0 35 35" fill="none" xmlns="http://www.w3.org/2000/svg">
<path d="M17.6631 34.4406C27.0499 34.4406 34.6594 26.8316 34.6594 17.4456C34.6594 8.05948 27.0499 0.450562 17.6631 0.450562C8.27627 0.450562 0.666748 8.05948 0.666748 17.4456C0.666748 26.8316 8.27627 34.4406 17.6631 34.4406Z" fill="#00A2C7"/>
<g clip-path="url(#clip0_955_2648)">
<path d="M29.1359 17.1666C28.8929 22.0207 26.9246 25.4466 22.9788 27.6047C20.5729 28.9175 17.9621 29.307 15.2752 28.6765C10.592 27.5775 7.59524 24.6447 6.52265 19.9705C5.49493 15.4898 6.89175 11.6795 10.3499 8.67112C12.054 7.18944 14.079 6.37985 16.3224 6.11593C19.4343 5.74424 22.2068 6.5691 24.6889 8.45133C25.0157 8.69913 25.091 9.09034 24.876 9.37463C24.6609 9.65892 24.3283 9.69541 23.9829 9.42979C22.7935 8.51498 21.5007 7.80723 20.0243 7.50767C15.7408 6.64038 12.1692 7.88191 9.48896 11.3434C6.25258 15.5229 6.87395 21.5099 10.7994 25.0817C12.7465 26.8553 15.0661 27.7625 17.6566 27.737C22.4074 27.6895 26.1788 24.6922 27.4495 20.4007C28.4332 17.0818 27.7974 14.0038 25.7615 11.2127C25.4127 10.7358 25.477 10.3454 25.9156 10.1723C26.2542 10.0382 26.4878 10.2139 26.6775 10.4609C27.5452 11.5751 28.23 12.7988 28.578 14.1659C28.8615 15.264 28.9987 16.4012 29.1359 17.1666Z" fill="white"/>
<path d="M18.265 13.4427V15.2588C18.265 15.6831 18.2803 16.1074 18.26 16.5317C18.2464 16.8245 18.326 16.9628 18.6307 17.0689C19.7465 17.4584 20.4407 18.268 20.6201 19.4323C20.8081 20.6517 20.3552 21.6548 19.3503 22.3761C19.1031 22.5526 18.789 22.6307 18.5266 22.7911C18.4644 22.8293 18.4104 22.8793 18.3675 22.9385C18.3247 22.9976 18.2939 23.0646 18.2769 23.1357C18.2405 23.4276 18.2769 23.7297 18.2625 24.0242C18.2447 24.4569 18.0254 24.703 17.6699 24.7158C17.5845 24.7203 17.4992 24.7059 17.4201 24.6736C17.3409 24.6412 17.2699 24.5917 17.212 24.5286C17.1542 24.4656 17.111 24.3904 17.0855 24.3086C17.06 24.2269 17.0529 24.1404 17.0646 24.0556C17.1425 23.2672 16.9689 22.7962 16.1334 22.4483C15.1709 22.0494 14.7307 21.1066 14.6587 20.0467C14.6299 19.6334 14.8449 19.3483 15.1937 19.3084C15.5273 19.2693 15.7965 19.5146 15.8431 19.933C15.9277 20.6874 16.2536 21.256 17.0519 21.5903V19.5053C17.0456 19.4064 17.0456 19.3071 17.0519 19.2082C17.1459 18.4759 17.0231 18.0015 16.191 17.6493C15.082 17.18 14.5825 16.1218 14.6672 14.9032C14.7518 13.6031 15.4341 12.6849 16.682 12.2453C16.9469 12.152 17.079 12.0408 17.0553 11.7404C17.0348 11.4293 17.04 11.1171 17.0706 10.8069C17.0993 10.4615 17.311 10.2646 17.6564 10.2646C18.0018 10.2646 18.2142 10.4717 18.249 10.8095C18.2773 11.1332 18.2807 11.4586 18.2591 11.7828C18.243 12.0417 18.3395 12.1435 18.585 12.2233C19.1536 12.4021 19.655 12.7489 20.0234 13.2184C20.3919 13.6878 20.6102 14.258 20.6498 14.854C20.6769 15.3564 20.4949 15.6356 20.1199 15.6653C19.7448 15.695 19.5188 15.4641 19.4595 14.9626C19.3689 14.1819 18.9465 13.6243 18.265 13.4427ZM18.3014 18.2739V21.5487C19.0498 21.2653 19.5019 20.5779 19.4621 19.8252C19.4223 19.0852 18.9566 18.4572 18.3014 18.2739ZM17.0265 13.4275C16.2282 13.7355 15.7686 14.4933 15.8659 15.2571C15.9607 16.0056 16.439 16.5911 17.0265 16.6726V13.4275Z" fill="white"/>
<path d="M8.63281 17.3599C8.66837 15.0831 9.49038 12.9819 11.153 11.221C11.4916 10.8638 11.8303 10.8205 12.1079 11.0878C12.3856 11.3551 12.3399 11.6997 12.0173 12.0569C9.68762 14.6367 9.18476 17.8513 10.6789 20.9954C10.982 21.6336 11.4738 22.1835 11.8827 22.7699C11.9471 22.8615 12.0394 22.9328 12.1062 23.0245C12.3441 23.347 12.3373 23.6847 12.0969 23.8986C11.8319 24.1336 11.4544 24.1234 11.2021 23.8044C10.6942 23.1653 10.1693 22.5314 9.76295 21.8347C8.98412 20.5058 8.64974 19.0385 8.63281 17.3599Z" fill="white"/>
<path d="M26.6738 17.5024C26.6552 19.9261 25.8019 22.0137 24.1485 23.7771C23.8438 24.103 23.4942 24.1454 23.2173 23.8968C22.9405 23.6481 22.9405 23.3027 23.258 22.9633C24.0715 22.0968 24.7107 21.1252 25.0603 19.9863C25.9633 17.0445 25.3932 14.4217 23.3502 12.1179C23.2943 12.0543 23.2325 11.9949 23.1809 11.927C22.9464 11.5969 22.9667 11.2846 23.2325 11.0563C23.4865 10.8408 23.8514 10.8518 24.0927 11.1632C24.6353 11.8608 25.2152 12.5465 25.6436 13.3128C26.3682 14.6018 26.6908 16.0182 26.6738 17.5024Z" fill="white"/>
</g>
<defs>
<clipPath id="clip0_955_2648">
<rect width="22.9451" height="22.9433" fill="white" transform="translate(6.19055 6.0249)"/>
</clipPath>
</defs>
</svg>
