<svg width="35" height="35" viewBox="0 0 35 35" fill="none" xmlns="http://www.w3.org/2000/svg">
<path d="M17.3407 34.8814C26.7275 34.8814 34.337 27.2724 34.337 17.8864C34.337 8.50028 26.7275 0.891357 17.3407 0.891357C7.95388 0.891357 0.34436 8.50028 0.34436 17.8864C0.34436 27.2724 7.95388 34.8814 17.3407 34.8814Z" fill="#00A2C7"/>
<g clip-path="url(#clip0_955_2635)">
<path d="M11.9349 14.9259C11.9349 13.5726 11.9822 12.2739 11.9221 10.9788C11.8611 9.63965 12.6595 9.0053 13.841 9.01376C17.4968 9.04477 21.1534 9.02409 24.8091 9.02503C26.13 9.02503 26.688 9.60206 26.6889 10.9619C26.6889 13.3897 26.6889 15.8171 26.6889 18.2443C26.6889 19.5149 26.1427 20.0985 24.9247 20.0844C24.5843 20.0844 24.4277 20.1577 24.3394 20.5308C24.05 21.7935 23.3035 22.8941 22.2531 23.6067C22.0191 23.7711 21.9044 23.9347 21.9008 24.2457C21.888 25.4195 21.3091 26.0041 20.1803 26.005C16.4026 26.0088 12.6252 26.0088 8.84808 26.005C7.73934 26.005 7.14763 25.3772 7.14581 24.2194C7.14581 21.729 7.14581 19.2389 7.14581 16.7491C7.14581 15.538 7.73296 14.9294 8.90724 14.9231C9.89308 14.9212 10.879 14.9259 11.9349 14.9259ZM19.2827 23.7815C20.4702 23.7713 21.6059 23.2784 22.4436 22.4095C23.2813 21.5406 23.7535 20.3658 23.7577 19.1399C23.7577 16.5809 21.7087 14.4767 19.2382 14.4964C18.6423 14.4963 18.0523 14.6188 17.5027 14.8566C16.9531 15.0944 16.4549 15.4428 16.0372 15.8816C15.6194 16.3203 15.2905 16.8405 15.0696 17.4119C14.8486 17.9832 14.7401 18.5943 14.7504 19.2094C14.7695 21.7544 16.7876 23.7899 19.2827 23.7815ZM24.5333 19.2705C25.5711 19.3739 25.9097 19.1305 25.9124 18.2941C25.9185 15.8043 25.9185 13.3145 25.9124 10.8247C25.9124 10.0926 25.652 9.837 24.9457 9.837C21.1989 9.837 17.4521 9.837 13.7054 9.837C12.9535 9.837 12.7041 10.0992 12.7041 10.8858C12.6992 13.3443 12.6992 15.803 12.7041 18.2621C12.7041 19.1267 13.101 19.435 13.9612 19.2339C13.9885 17.75 14.4482 16.4267 15.4741 15.3441C15.9616 14.8152 16.5494 14.3956 17.201 14.1117C17.8525 13.8278 18.5538 13.6855 19.2609 13.6939C20.4863 13.6775 21.676 14.1198 22.6099 14.9391C23.9061 16.0612 24.5215 17.516 24.5333 19.2724V19.2705ZM21.0806 24.2749C19.5495 24.787 18.0621 24.6837 16.6575 23.8755C15.2247 23.0494 14.4045 21.7412 14.0404 20.09C13.8165 20.09 13.6199 20.0966 13.425 20.09C12.7132 20.0618 12.1761 19.6436 11.9949 18.9407C11.946 18.6963 11.9268 18.4466 11.9376 18.1973C11.9312 17.39 11.9376 16.5827 11.9376 15.7482C10.8726 15.7482 9.87398 15.7482 8.87448 15.7482C8.16445 15.7482 7.93325 15.9945 7.93325 16.7388C7.93325 19.1953 7.93325 21.6519 7.93325 24.1085C7.93325 24.9825 8.12896 25.1874 8.97462 25.1883C11.4021 25.1883 13.8271 25.1883 16.2497 25.1883C17.5987 25.1883 18.9478 25.193 20.2959 25.1883C20.8649 25.1846 21.1097 24.9045 21.0806 24.2767V24.2749Z" fill="white"/>
<path d="M20.9848 17.7915C20.9429 16.9664 20.6207 16.4485 20.0326 16.1638C19.7286 16.0153 19.6467 15.8424 19.6685 15.5323C19.6895 15.239 19.6603 14.9195 19.2825 14.9186C18.9048 14.9176 18.8775 15.2484 18.8948 15.5332C18.9148 15.8602 18.8092 16.0144 18.4997 16.145C17.8325 16.4269 17.4228 17.2351 17.5193 17.9381C17.564 18.3292 17.7308 18.6947 17.9946 18.9792C18.2584 19.2637 18.6047 19.4518 18.9812 19.515C19.1614 19.5364 19.3404 19.5678 19.5174 19.609C19.6601 19.6482 19.7916 19.7222 19.9008 19.8247C20.01 19.9273 20.0938 20.0554 20.1451 20.1983C20.1964 20.3412 20.2137 20.4948 20.1955 20.6461C20.1774 20.7973 20.1243 20.9419 20.0408 21.0676C19.806 21.4435 19.4664 21.5666 19.0595 21.4905C18.5971 21.4031 18.3714 21.0807 18.3031 20.6174C18.263 20.3468 18.1547 20.1062 17.8479 20.1588C17.5148 20.2152 17.4838 20.4962 17.532 20.78C17.634 21.3862 17.9207 21.8889 18.4778 22.1258C18.8192 22.2705 18.9457 22.4537 18.8957 22.8118C18.8756 22.904 18.8899 23.0006 18.9357 23.0825C19.0377 23.198 19.1815 23.355 19.2998 23.3503C19.4182 23.3456 19.5784 23.1887 19.6503 23.058C19.7104 22.9509 19.684 22.7827 19.6722 22.6436C19.6521 22.3992 19.7168 22.2677 19.9644 22.1549C20.7299 21.8138 21.0877 21.0666 20.9566 20.1983C20.8419 19.4464 20.2283 18.8657 19.4227 18.7585C19.2878 18.7421 19.154 18.7167 19.0222 18.6824C18.7836 18.6244 18.5768 18.4716 18.4467 18.2571C18.3167 18.0426 18.2739 17.7837 18.3277 17.5368C18.3719 17.2959 18.505 17.0821 18.6989 16.9406C18.8929 16.7991 19.1325 16.741 19.3672 16.7784C19.9134 16.8442 20.1073 17.2276 20.2365 17.7182C20.2775 17.8761 20.496 18.08 20.6389 18.0856C20.7818 18.0913 20.9092 17.8629 20.9848 17.7915Z" fill="white"/>
<path d="M20.9848 17.7915C20.9093 17.8629 20.7682 18.096 20.6362 18.0913C20.5042 18.0866 20.2721 17.8817 20.2338 17.7238C20.1046 17.2304 19.908 16.847 19.3645 16.784C19.1298 16.7466 18.8901 16.8048 18.6962 16.9463C18.5022 17.0878 18.3691 17.3015 18.3249 17.5424C18.2712 17.7893 18.3139 18.0482 18.444 18.2627C18.5741 18.4772 18.7809 18.6301 19.0195 18.688C19.1513 18.7224 19.2851 18.7478 19.42 18.7642C20.222 18.8713 20.8392 19.4493 20.9539 20.2039C21.085 21.0723 20.7272 21.8194 19.9616 22.1605C19.714 22.2714 19.6494 22.4049 19.6694 22.6492C19.6813 22.7883 19.7077 22.9565 19.6476 23.0637C19.5757 23.1943 19.4218 23.3456 19.2971 23.3559C19.1724 23.3663 19.0331 23.2037 18.933 23.0881C18.8872 23.0063 18.8729 22.9096 18.893 22.8174C18.943 22.4594 18.8165 22.2761 18.4752 22.1314C17.9181 21.8946 17.6313 21.3918 17.5293 20.7856C17.4811 20.5037 17.512 20.2218 17.8452 20.1644C18.1556 20.1118 18.2639 20.3524 18.3003 20.623C18.3686 21.0864 18.5944 21.4087 19.0568 21.4961C19.4637 21.5722 19.8033 21.4453 20.0381 21.0732C20.1216 20.9475 20.1747 20.803 20.1928 20.6517C20.211 20.5004 20.1937 20.3469 20.1424 20.2039C20.0911 20.061 20.0073 19.9329 19.8981 19.8303C19.7888 19.7278 19.6574 19.6538 19.5147 19.6147C19.3377 19.5734 19.1588 19.542 18.9785 19.5207C18.6019 19.4569 18.2557 19.2683 17.9922 18.9832C17.7288 18.6982 17.5624 18.3323 17.5184 17.9409C17.4219 17.238 17.8316 16.4288 18.4988 16.1478C18.8083 16.0172 18.9139 15.8659 18.8939 15.536C18.8766 15.2541 18.8993 14.9204 19.2817 14.9214C19.664 14.9223 19.6885 15.2419 19.6676 15.5351C19.6467 15.8452 19.7286 16.0181 20.0317 16.1666C20.6207 16.4485 20.9429 16.9664 20.9848 17.7915Z" fill="white"/>
<path d="M19.3153 10.5167H24.9591C25.5717 10.5167 25.6727 10.6229 25.6755 11.2469C25.6755 11.6069 25.67 11.9668 25.6755 12.3267C25.6837 12.7628 25.4834 12.9432 25.0628 12.9414C23.4862 12.932 21.9096 12.9414 20.3293 12.9414H13.6433C13.0543 12.9414 12.9533 12.837 12.9496 12.2356C12.9496 11.8756 12.9432 11.5157 12.9496 11.1558C12.9605 10.6567 13.0935 10.5224 13.5823 10.5224C15.4939 10.5186 17.4049 10.5167 19.3153 10.5167ZM24.858 11.3625H13.7616V12.0927H24.858V11.3625Z" fill="white"/>
<path d="M10.2543 21.6709C10.7286 22.0205 11.3148 21.7311 11.9092 21.6832C12.5418 21.6324 13.0926 22.0506 13.3274 22.6483C13.575 23.2892 13.4749 23.8757 13.0179 24.3803C12.8087 24.6204 12.5313 24.7861 12.2254 24.8536C11.9195 24.9211 11.6008 24.8871 11.3148 24.7562C11.2193 24.7039 11.1129 24.6766 11.0048 24.6766C10.8967 24.6766 10.7903 24.7039 10.6949 24.7562C10.4087 24.8869 10.0902 24.9223 9.78364 24.8574C9.4771 24.7926 9.19776 24.6308 8.98443 24.3944C8.78123 24.1719 8.64247 23.895 8.58391 23.5952C8.52534 23.2954 8.5493 22.9846 8.65307 22.6981C8.91978 22.0375 9.45506 21.6662 10.2543 21.6709ZM10.8678 23.2686C10.8685 23.0637 10.7936 22.8662 10.6583 22.7162C10.5231 22.5663 10.3376 22.4751 10.1396 22.4613C9.72904 22.4434 9.33033 22.825 9.32032 23.2413C9.32009 23.4541 9.39938 23.6589 9.54162 23.8129C9.68387 23.9669 9.87815 24.0584 10.0841 24.0683C10.1868 24.0707 10.2889 24.0518 10.3844 24.0126C10.4799 23.9734 10.5668 23.9149 10.6399 23.8403C10.713 23.7658 10.7708 23.6769 10.81 23.5788C10.8491 23.4808 10.8688 23.3756 10.8678 23.2695V23.2686ZM11.6106 24.0016C11.9747 24.1529 12.3188 24.0589 12.5564 23.6896C12.7776 23.3466 12.7166 22.9904 12.4472 22.7103C12.1987 22.4528 11.8919 22.3457 11.6106 22.5506V24.0016Z" fill="white"/>
</g>
<defs>
<clipPath id="clip0_955_2635">
<rect width="19.5458" height="16.995" fill="white" transform="translate(7.14288 9.01489)"/>
</clipPath>
</defs>
</svg>
