<svg width="35" height="35" viewBox="0 0 35 35" fill="none" xmlns="http://www.w3.org/2000/svg">
<path d="M17.663 34.8814C27.0498 34.8814 34.6593 27.2724 34.6593 17.8864C34.6593 8.50028 27.0498 0.891357 17.663 0.891357C8.27614 0.891357 0.666626 8.50028 0.666626 17.8864C0.666626 27.2724 8.27614 34.8814 17.663 34.8814Z" fill="#00A2C7"/>
<g clip-path="url(#clip0_955_2661)">
<path d="M18.9846 19.8275L18.8828 19.7256C15.8799 22.0479 12.1217 21.0034 10.3618 18.652C8.62008 16.3246 8.75648 12.9543 10.9313 10.7359C12.9035 8.72437 16.2377 8.44312 18.581 10.0735C21.0408 11.7855 22.189 15.7321 19.887 18.7259L20.0438 18.8742C20.8072 18.2118 21.8211 18.4105 22.4502 19.0204C23.5037 20.042 24.5583 21.064 25.5803 22.1167C26.1162 22.6685 26.3249 23.3441 26.0231 24.1037C25.9853 24.2076 25.9281 24.3034 25.8546 24.386C25.425 24.8313 25.0184 25.3067 24.544 25.699C24.0351 26.1183 23.433 26.0725 22.8644 25.7943C22.6163 25.6664 22.3895 25.5007 22.1921 25.3031C21.2185 24.357 20.258 23.3981 19.2936 22.4422C18.8233 21.976 18.5464 21.4232 18.6533 20.7507C18.7011 20.4536 18.8574 20.1724 18.9846 19.8275ZM15.145 19.5763C15.744 19.5784 16.3375 19.4622 16.8916 19.2344C17.4457 19.0065 17.9494 18.6714 18.3739 18.2483C18.7983 17.8252 19.1353 17.3224 19.3653 16.7688C19.5954 16.2151 19.714 15.6215 19.7145 15.0218C19.7172 13.815 19.242 12.6562 18.3929 11.7994C17.5439 10.9426 16.3903 10.4576 15.1847 10.4506C12.6765 10.4348 10.6157 12.4886 10.6116 15.0101C10.6118 16.2163 11.0885 17.3734 11.9379 18.2289C12.7872 19.0844 13.9402 19.5687 15.145 19.5763ZM23.604 24.5694C23.6567 24.5478 23.7068 24.5201 23.7531 24.4869C24.0585 24.1914 24.3639 23.8984 24.6529 23.5891C24.7038 23.5336 24.711 23.3945 24.6814 23.3155C24.6317 23.2082 24.5607 23.1122 24.4728 23.0333C23.5363 22.0992 22.5976 21.1673 21.6567 20.2376C21.5656 20.1494 21.4666 20.0698 21.361 19.9997C21.2256 19.9069 21.1065 19.9156 20.9854 20.0506C20.7512 20.3054 20.4978 20.5464 20.2524 20.793C20.03 21.0166 20.0183 21.1354 20.2489 21.3651C21.2515 22.3651 22.2588 23.3605 23.2706 24.3513C23.3637 24.441 23.492 24.4986 23.604 24.5684V24.5694Z" fill="white"/>
<path d="M12.61 14.0752L14.4301 15.9156L17.722 12.5854L18.744 13.6299C18.712 13.6651 18.659 13.7278 18.601 13.7858C17.4202 14.9689 16.2393 16.1513 15.0581 17.333C14.6265 17.7646 14.2611 17.7666 13.833 17.3391C13.0772 16.5845 12.3219 15.8289 11.585 15.0917L12.61 14.0752Z" fill="white"/>
</g>
<defs>
<clipPath id="clip0_955_2661">
<rect width="16.9963" height="16.995" fill="white" transform="translate(9.16479 9.01489)"/>
</clipPath>
</defs>
</svg>
