<svg width="40" height="40" viewBox="0 0 40 40" fill="none" xmlns="http://www.w3.org/2000/svg">
<path d="M20 40C31.0457 40 40 31.0457 40 20C40 8.9543 31.0457 0 20 0C8.9543 0 0 8.9543 0 20C0 31.0457 8.9543 40 20 40Z" fill="#00A2C7"/>
<path d="M20.3104 13.5105C21.6577 12.1632 23.8421 12.1632 25.1894 13.5105C26.5368 14.8578 26.5368 17.0422 25.1894 18.3895C23.8421 19.7368 21.6577 19.7368 20.3104 18.3895C18.9631 17.0422 18.9631 14.8578 20.3104 13.5105ZM26.2501 12.4498C24.317 10.5167 21.1828 10.5167 19.2497 12.4498C17.3166 14.3829 17.3166 17.5171 19.2497 19.4502C21.1829 21.3833 24.317 21.3833 26.2501 19.4502C28.1832 17.5171 28.1832 14.3829 26.2501 12.4498ZM16.2303 18.2197C16.5232 18.5126 16.5232 18.9874 16.2303 19.2803L13.2303 22.2803C12.9374 22.5732 12.4626 22.5732 12.1697 22.2803L10.2197 20.3303C9.92678 20.0374 9.92678 19.5626 10.2197 19.2697C10.5126 18.9768 10.9874 18.9768 11.2803 19.2697L12.7 20.6893L15.1697 18.2197C15.4626 17.9268 15.9374 17.9268 16.2303 18.2197ZM20.197 24.0532C18.1552 24.0532 16.5 25.7084 16.5 27.7502C16.5 28.1644 16.1642 28.5002 15.75 28.5002C15.3358 28.5002 15 28.1644 15 27.7502C15 24.88 17.3268 22.5532 20.197 22.5532H25.303C28.1732 22.5532 30.5 24.88 30.5 27.7502C30.5 28.1644 30.1642 28.5002 29.75 28.5002C29.3358 28.5002 29 28.1644 29 27.7502C29 25.7084 27.3448 24.0532 25.303 24.0532H20.197Z" fill="white"/>
</svg>
