<svg width="40" height="40" viewBox="0 0 40 40" fill="none" xmlns="http://www.w3.org/2000/svg">
<path d="M20 40C31.0457 40 40 31.0457 40 20C40 8.9543 31.0457 0 20 0C8.9543 0 0 8.9543 0 20C0 31.0457 8.9543 40 20 40Z" fill="#00A2C7"/>
<path d="M15.25 11.5C14.8362 11.5 14.5 11.8362 14.5 12.25V17.75C14.5 18.1642 14.1642 18.5 13.75 18.5C13.3358 18.5 13 18.1642 13 17.75V12.25C13 11.0078 14.0078 10 15.25 10C16.0298 10 16.7171 10.3971 17.1209 11H26.75C28.2692 11 29.5 12.2308 29.5 13.75V27.75C29.5 29.2692 28.2692 30.5 26.75 30.5H15.75C14.2308 30.5 13 29.2692 13 27.75V22.425C11.2882 22.0776 10 20.5644 10 18.75V13.75C10 13.3358 10.3358 13 10.75 13C11.1642 13 11.5 13.3358 11.5 13.75V18.75C11.5 19.9928 12.5072 21 13.75 21C14.9928 21 16 19.9928 16 18.75V12.25C16 11.8362 15.6638 11.5 15.25 11.5ZM14.5 22.425V27.75C14.5 28.4408 15.0592 29 15.75 29H26.75C27.4408 29 28 28.4408 28 27.75V13.75C28 13.0592 27.4408 12.5 26.75 12.5H17.5V18.75C17.5 20.5644 16.2118 22.0776 14.5 22.425ZM19 16.75C19 16.3358 19.3358 16 19.75 16H24.75C25.1642 16 25.5 16.3358 25.5 16.75C25.5 17.1642 25.1642 17.5 24.75 17.5H19.75C19.3358 17.5 19 17.1642 19 16.75ZM19.75 20C19.3358 20 19 20.3358 19 20.75C19 21.1642 19.3358 21.5 19.75 21.5H24.75C25.1642 21.5 25.5 21.1642 25.5 20.75C25.5 20.3358 25.1642 20 24.75 20H19.75ZM17 24.75C17 24.3358 17.3358 24 17.75 24H24.75C25.1642 24 25.5 24.3358 25.5 24.75C25.5 25.1642 25.1642 25.5 24.75 25.5H17.75C17.3358 25.5 17 25.1642 17 24.75Z" fill="white"/>
</svg>
