<svg width="40" height="40" viewBox="0 0 40 40" fill="none" xmlns="http://www.w3.org/2000/svg">
<path d="M20 40C31.0457 40 40 31.0457 40 20C40 8.9543 31.0457 0 20 0C8.9543 0 0 8.9543 0 20C0 31.0457 8.9543 40 20 40Z" fill="#00A2C7"/>
<path d="M24.25 20.3962C24.5401 20.3962 24.8196 20.4972 25.042 20.6794L25.1338 20.7625L25.2168 20.8543C25.3989 21.0767 25.5 21.3563 25.5 21.6462C25.4999 21.9777 25.3681 22.2957 25.1338 22.53C24.8994 22.7644 24.5815 22.8962 24.25 22.8962C23.9185 22.8962 23.6006 22.7644 23.3662 22.53C23.1613 22.3251 23.0344 22.0562 23.0059 21.7703L23 21.6462L23.0059 21.5222C23.0344 21.2363 23.1613 20.9675 23.3662 20.7625L23.458 20.6794C23.6804 20.4972 23.9599 20.3962 24.25 20.3962Z" fill="white"/>
<path d="M23.1953 11.0564C23.5555 10.9822 23.9274 10.9812 24.2891 11.0535C24.7022 11.1361 25.0907 11.3125 25.4248 11.5691C25.759 11.8258 26.0305 12.156 26.2168 12.5339C26.403 12.9118 26.4999 13.3276 26.5 13.7488V14.3962H26.75C27.4793 14.3962 28.1786 14.6862 28.6943 15.2019C29.21 15.7176 29.5 16.417 29.5 17.1462V26.1462C29.4999 26.8755 29.21 27.5749 28.6943 28.0906C28.1786 28.6062 27.4793 28.8962 26.75 28.8962H12.75C12.0207 28.8962 11.3214 28.6062 10.8057 28.0906C10.29 27.5749 10.0001 26.8755 10 26.1462V16.6834C9.99987 16.0773 10.2002 15.4882 10.5693 15.0076C10.9386 14.5269 11.4563 14.1812 12.042 14.0252L23.042 11.0925L23.1953 11.0564ZM12.75 15.8962C12.4185 15.8962 12.1006 16.028 11.8662 16.2625C11.6319 16.4969 11.5 16.8148 11.5 17.1462V26.1462C11.5001 26.4777 11.6319 26.7957 11.8662 27.03C12.1006 27.2644 12.4185 27.3962 12.75 27.3962H26.75C27.0815 27.3962 27.3994 27.2644 27.6338 27.03C27.8681 26.7957 27.9999 26.4777 28 26.1462V17.1462C28 16.8148 27.8681 16.4969 27.6338 16.2625C27.4288 16.0575 27.16 15.9306 26.874 15.9021L26.75 15.8962H12.75ZM23.9951 12.5242C23.8073 12.4866 23.6128 12.4915 23.4277 12.5408L23.4287 12.5418L16.4746 14.3962H25V13.7498L24.9922 13.6062C24.9758 13.4643 24.9345 13.3258 24.8711 13.197C24.7864 13.0253 24.6635 12.8752 24.5117 12.7586C24.3598 12.6419 24.1829 12.5617 23.9951 12.5242Z" fill="white"/>
</svg>
