<svg width="40" height="40" viewBox="0 0 40 40" fill="none" xmlns="http://www.w3.org/2000/svg">
<path d="M20 40C31.0457 40 40 31.0457 40 20C40 8.9543 31.0457 0 20 0C8.9543 0 0 8.9543 0 20C0 31.0457 8.9543 40 20 40Z" fill="#00A2C7"/>
<path d="M22.6 17.475L19 21.075L17 19.075C16.7 18.775 16.2 18.775 15.9 19.075C15.6 19.375 15.6 19.875 15.9 20.175L18.4 22.675C18.5 22.775 18.7 22.875 18.9 22.875C19.1 22.875 19.3 22.775 19.4 22.675L23.5 18.575C23.8 18.275 23.8 17.775 23.5 17.475C23.4 17.175 22.9 17.175 22.6 17.475Z" fill="white"/>
<path d="M27 12.875C24.8 12.675 22.7 11.875 21 10.375C20.4 9.875 19.4 9.875 18.7 10.375C17 11.775 14.9 12.675 12.6 12.875C11.7 12.875 11 13.675 11 14.575V18.875C11 23.575 14.4 27.975 19 29.275C19.2 29.375 19.5 29.375 19.7 29.375C19.9 29.375 20.2 29.375 20.4 29.275C25 27.975 28.4 23.575 28.4 18.875V14.575C28.6 13.675 27.9 12.875 27 12.875ZM27 18.875C27 22.975 24.1 26.675 20.1 27.875C19.9 27.975 19.7 27.975 19.5 27.875C15.5 26.775 12.6 22.975 12.6 18.875V14.575C12.6 14.475 12.7 14.375 12.8 14.375C15.4 14.175 17.7 13.175 19.7 11.475L19.8 11.375C19.8 11.375 19.9 11.375 19.9 11.475C21.9 13.175 24.2 14.175 26.8 14.375C26.9 14.375 27 14.475 27 14.575V18.875Z" fill="white"/>
</svg>
